_states
version=1
nRows=75
nColumns=7
inDegrees=yes

# SIMM Motion File Header:
name _states
datacolumns 7
datarows 75
otherdata 1
range 0.00000000 0.30477197
endheader
time	block_tz	block_tz_u	RightMuscle.activation	RightMuscle.fiber_length	LeftMuscle.activation	LeftMuscle.fiber_length
      0.00000000	      0.00000000	      0.00000000	      0.01000000	      0.10000000	      0.01000000	      0.10000000
      0.00066976	     -0.00000000	     -0.00000156	      0.06547426	      0.09988091	      0.01000000	      0.09995292
      0.00133953	     -0.00000001	     -0.00005620	      0.10919462	      0.09968954	      0.01000000	      0.09990612
      0.00220930	     -0.00000020	     -0.00045448	      0.15493070	      0.09941282	      0.01000000	      0.09984707
      0.00331817	     -0.00000134	     -0.00176406	      0.20132172	      0.09906311	      0.01000000	      0.09977835
      0.00473053	     -0.00000581	     -0.00482177	      0.24766149	      0.09864519	      0.01000000	      0.09970735
      0.00652754	     -0.00001958	     -0.01090485	      0.29303105	      0.09816365	      0.01000000	      0.09964660
      0.00881795	     -0.00005662	     -0.02205754	      0.33642583	      0.09762670	      0.01000000	      0.09961205
      0.01175459	     -0.00014847	     -0.04133326	      0.37678770	      0.09704082	      0.01000000	      0.09962862
      0.01557197	     -0.00036411	     -0.07260358	      0.41308030	      0.09638728	      0.01000000	      0.09975494
      0.01938934	     -0.00070830	     -0.10824080	      0.43782775	      0.09579575	      0.01000000	      0.10001707
      0.02567812	     -0.00158311	     -0.17001127	      0.46354657	      0.09483937	      0.01000000	      0.10076233
      0.03196690	     -0.00283793	     -0.22784314	      0.47834489	      0.09377366	      0.01000000	      0.10189660
      0.03825567	     -0.00442955	     -0.27656723	      0.48704143	      0.09250463	      0.01000000	      0.10335375
      0.04384230	     -0.00607406	     -0.31072142	      0.49175841	      0.09117544	      0.01000000	      0.10487830
      0.04942893	     -0.00788549	     -0.33643352	      0.49474751	      0.08965534	      0.01000000	      0.10658582
      0.05649810	     -0.01034824	     -0.35858747	      0.49702421	      0.08749436	      0.01000000	      0.10892329
      0.06115916	     -0.01204293	     -0.36796346	      0.49795270	      0.08595575	      0.01000000	      0.11054234
      0.06582022	     -0.01377321	     -0.37394639	      0.49859100	      0.08435050	      0.01000000	      0.11219130
      0.07067831	     -0.01559861	     -0.37702574	      0.49904525	      0.08262585	      0.01000000	      0.11392575
      0.07553639	     -0.01743185	     -0.37721001	      0.49935293	      0.08086631	      0.01000000	      0.11565575
      0.08039448	     -0.01925932	     -0.37466887	      0.49956141	      0.07908796	      0.01000000	      0.11736502
      0.08525257	     -0.02106798	     -0.36946311	      0.49970269	      0.07730561	      0.01000000	      0.11903813
      0.09011065	     -0.02284485	     -0.36157855	      0.49979846	      0.07553329	      0.01000000	      0.12066288
      0.09496874	     -0.02457685	     -0.35098616	      0.49986337	      0.07378467	      0.01000000	      0.12222803
      0.09982683	     -0.02625079	     -0.33768479	      0.49990737	      0.07207329	      0.01000000	      0.12372443
      0.10178827	     -0.02690721	     -0.33156980	      0.49966298	      0.07139600	      0.01000000	      0.12430489
      0.10298883	     -0.02730292	     -0.32761348	      0.49923521	      0.07098609	      0.01045993	      0.12465296
      0.10418939	     -0.02769378	     -0.32347902	      0.49860269	      0.07058005	      0.01203544	      0.12498908
      0.10864283	     -0.02909682	     -0.30598589	      0.49459842	      0.06911224	      0.02433356	      0.12611389
      0.11309626	     -0.03041261	     -0.28413785	      0.48826798	      0.06771596	      0.04178936	      0.12710250
      0.11605431	     -0.03122837	     -0.26707676	      0.48294884	      0.06683605	      0.05457874	      0.12769755
      0.11901235	     -0.03199067	     -0.24801626	      0.47684833	      0.06600027	      0.06782145	      0.12825768
      0.12265623	     -0.03284789	     -0.22207868	      0.46838286	      0.06503958	      0.08446294	      0.12888927
      0.12630011	     -0.03360626	     -0.19382782	      0.45900003	      0.06416432	      0.10129097	      0.12945005
      0.13013357	     -0.03428917	     -0.16219430	      0.44827652	      0.06334559	      0.11909439	      0.12994880
      0.13396703	     -0.03484801	     -0.12920257	      0.43680531	      0.06263939	      0.13694939	      0.13035024
      0.13805913	     -0.03530326	     -0.09325808	      0.42386179	      0.06201470	      0.15603770	      0.13066759
      0.14215122	     -0.03561142	     -0.05747727	      0.41031313	      0.06152314	      0.17514112	      0.13087600
      0.14624332	     -0.03577547	     -0.02305545	      0.39626171	      0.06115807	      0.19425230	      0.13098933
      0.15033541	     -0.03580400	      0.00849967	      0.38179565	      0.06090815	      0.21336759	      0.13102209
      0.15442751	     -0.03571194	      0.03565197	      0.36699077	      0.06076232	      0.23248508	      0.13097597
      0.16006003	     -0.03542627	      0.06394847	      0.34617716	      0.06072407	      0.25880103	      0.13078093
      0.16395850	     -0.03514945	      0.07729918	      0.33154340	      0.06081971	      0.27701594	      0.13056108
      0.16726236	     -0.03487965	      0.08573307	      0.31903077	      0.06101942	      0.29245283	      0.13032790
      0.17056621	     -0.03458401	      0.09319726	      0.30643922	      0.06132816	      0.30788986	      0.13005946
      0.17387007	     -0.03426365	      0.10081600	      0.29378790	      0.06170000	      0.32332698	      0.12976161
      0.17795866	     -0.03383086	      0.11106580	      0.27807432	      0.06221420	      0.34243085	      0.12935685
      0.18204726	     -0.03335401	      0.12237810	      0.26232427	      0.06278188	      0.36153477	      0.12891326
      0.18613585	     -0.03282876	      0.13472514	      0.24656321	      0.06340484	      0.38063873	      0.12842934
      0.19108376	     -0.03212267	      0.15090774	      0.22750703	      0.06423740	      0.40375782	      0.12778559
      0.19603166	     -0.03133362	      0.16822436	      0.20850304	      0.06516392	      0.42687694	      0.12707269
      0.19926697	     -0.03077033	      0.18005064	      0.19618789	      0.06582367	      0.44199396	      0.12656640
      0.20088015	     -0.03047503	      0.18607332	      0.19035032	      0.06616695	      0.44939943	      0.12630156
      0.20283237	     -0.03010459	      0.19343728	      0.18361010	      0.06659383	      0.45711480	      0.12597042
      0.20746179	     -0.02916853	      0.21094357	      0.16891499	      0.06765417	      0.47087257	      0.12514210
      0.21209121	     -0.02815236	      0.22792754	      0.15581460	      0.06878351	      0.48010922	      0.12425397
      0.21773116	     -0.02681182	      0.24713489	      0.14168452	      0.07024616	      0.48744284	      0.12308924
      0.22337111	     -0.02536889	      0.26417003	      0.12925754	      0.07179956	      0.49204660	      0.12183369
      0.22850909	     -0.02397612	      0.27765947	      0.11919586	      0.07328181	      0.49474416	      0.12061375
      0.23469929	     -0.02221350	      0.29139282	      0.10843264	      0.07514283	      0.49680467	      0.11905305
      0.24088948	     -0.02037381	      0.30261113	      0.09893883	      0.07707302	      0.49805548	      0.11739883
      0.24647079	     -0.01866104	      0.31088828	      0.09131148	      0.07885999	      0.49875680	      0.11583258
      0.25205209	     -0.01690614	      0.31776284	      0.08445091	      0.08068529	      0.49920493	      0.11420180
      0.25733567	     -0.01521218	      0.32332956	      0.07857678	      0.08244006	      0.49947917	      0.11260534
      0.26261926	     -0.01349061	      0.32825920	      0.07323626	      0.08421975	      0.49965877	      0.11096445
      0.26818473	     -0.01165028	      0.33302507	      0.06812331	      0.08611580	      0.49978141	      0.10919516
      0.27375020	     -0.00978430	      0.33749294	      0.06347815	      0.08803507	      0.49985997	      0.10739167
      0.27960531	     -0.00779514	      0.34192080	      0.05904027	      0.09007437	      0.49991234	      0.10546690
      0.28546042	     -0.00578119	      0.34592202	      0.05501244	      0.09213817	      0.49994513	      0.10352224
      0.29131552	     -0.00374541	      0.34937045	      0.05135030	      0.09421766	      0.49996565	      0.10156020
      0.29717063	     -0.00169117	      0.35227227	      0.04801526	      0.09632268	      0.49997850	      0.09956833
      0.30049372	     -0.00051789	      0.35387025	      0.04625496	      0.09752496	      0.49994035	      0.09842121
      0.30381681	      0.00066076	      0.35550724	      0.04515937	      0.09872776	      0.49886986	      0.09726529
      0.30477197	      0.00100055	      0.35596931	      0.04519646	      0.09907130	      0.49827231	      0.09693191
